<svg id="pict23" xmlns="http://www.w3.org/2000/svg" xmlns:xlink="http://www.w3.org/1999/xlink" width="50" height="50"
     viewBox="0 0 50 50">
    <defs>
        <style>
            .cls-1 {
            fill: #fff;
            }

            .cls-2 {
            fill: #020202;
            }

            .cls-3 {
            fill: url(#linear-gradient);
            }
        </style>
        <linearGradient id="linear-gradient" x1="0.475" y1="0.065" x2="0.5" y2="1" gradientUnits="objectBoundingBox">
            <stop offset="0" stop-color="#f58529"/>
            <stop offset="0.179" stop-color="#feda77"/>
            <stop offset="0.689" stop-color="#dd2a7b"/>
            <stop offset="1" stop-color="#8134af"/>
        </linearGradient>
    </defs>
    <g id="Group_28" data-name="Group 28" transform="translate(-246 -176)">
        <circle id="Ellipse_5" data-name="Ellipse 5" class="cls-1" cx="25" cy="25" r="25"
                transform="translate(246 176)"/>
        <path id="Path_14" data-name="Path 14" class="cls-2"
              d="M8.1.18H7.21V-2.94a2.05,2.05,0,0,0-.759-1.715,3.746,3.746,0,0,0-2.326-.6,5.02,5.02,0,0,0-1.692.275,2.609,2.609,0,0,0-1.193.8V.18H.35v-6h.89l-.009.66A3.217,3.217,0,0,1,2.548-5.9a5.522,5.522,0,0,1,1.577-.23,4.62,4.62,0,0,1,2.989.815A2.9,2.9,0,0,1,8.1-2.94Zm2.86,0h-.89V-5.79h.89ZM9.95-6.98a.577.577,0,0,1,.16-.41.538.538,0,0,1,.41-.17.559.559,0,0,1,.41.17.559.559,0,0,1,.17.41.554.554,0,0,1-.17.415.567.567,0,0,1-.41.165.546.546,0,0,1-.41-.165A.572.572,0,0,1,9.95-6.98Zm9.61,1.16L17.42-2.9l.545.76.59.82.575.8q.28.39.51.7H18.57L16.65-2.45H13.77V.18h-.89V-7.1h.89v3.77h2.88l1.83-2.49ZM24.805.5A5.523,5.523,0,0,1,23.128.26a3.952,3.952,0,0,1-1.3-.675A3,3,0,0,1,21-1.465a3.089,3.089,0,0,1-.3-1.355A3.079,3.079,0,0,1,21-4.18a3.014,3.014,0,0,1,.836-1.045,3.882,3.882,0,0,1,1.3-.67,5.632,5.632,0,0,1,1.677-.235,5.682,5.682,0,0,1,1.682.235,3.875,3.875,0,0,1,1.3.67,3.014,3.014,0,0,1,.836,1.045,3.079,3.079,0,0,1,.3,1.36,3.089,3.089,0,0,1-.3,1.355,3,3,0,0,1-.836,1.05,3.945,3.945,0,0,1-1.3.675A5.572,5.572,0,0,1,24.805.5ZM24.8-5.25a4.607,4.607,0,0,0-1.31.175,3.109,3.109,0,0,0-1.015.5,2.267,2.267,0,0,0-.655.773,2.135,2.135,0,0,0-.23.988,2.157,2.157,0,0,0,.23,1,2.221,2.221,0,0,0,.655.768,3.169,3.169,0,0,0,1.015.494A4.607,4.607,0,0,0,24.8-.38a4.659,4.659,0,0,0,1.315-.175,3.163,3.163,0,0,0,1.02-.494,2.272,2.272,0,0,0,.66-.768,2.119,2.119,0,0,0,.235-1A2.1,2.1,0,0,0,27.8-3.8a2.32,2.32,0,0,0-.66-.773,3.1,3.1,0,0,0-1.02-.5A4.659,4.659,0,0,0,24.8-5.25Z"
              transform="translate(256.365 215)"/>
        <path id="Union_3" data-name="Union 3" class="cls-3"
              d="M248.278,10.516,248,.394a3.952,3.952,0,0,1,1.121-2.89A4.036,4.036,0,0,1,252-3.72a3.979,3.979,0,0,1,1.692.38l6.62,3.087,3.538-2.709a3.935,3.935,0,0,1,2.483-.83A3.994,3.994,0,0,1,270.279.175l.1,10.125a3.952,3.952,0,0,1-1.172,2.87,4.034,4.034,0,0,1-2.9,1.174,3.977,3.977,0,0,1-1.686-.41l-6.416-3.13-3.447,2.736a3.937,3.937,0,0,1-2.468.874A4,4,0,0,1,248.278,10.516Zm16.455,2.14a2.989,2.989,0,0,0,1.264.307,3.033,3.033,0,0,0,2.173-.88,2.964,2.964,0,0,0,.879-2.153l-.09-9.162A3,3,0,0,0,266-2.208a2.957,2.957,0,0,0-1.863.623L261.6.351l.293.136a4,4,0,0,1,.8,6.758L259.247,9.98ZM250.181-1.427a2.969,2.969,0,0,0-.842,2.168l.25,9.159a3,3,0,0,0,3.013,2.923,2.952,2.952,0,0,0,1.851-.655l2.494-1.979-.461-.225a4,4,0,0,1-.678-6.771L259.239.567,253.606-2.06a2.979,2.979,0,0,0-1.268-.284A3.028,3.028,0,0,0,250.181-1.427Zm6.677,5.412a3,3,0,0,0,.508,5.079l.619.3,3.645-2.893a3,3,0,0,0-.6-5.069l-.5-.233Z"
              transform="translate(10.896 189.588)"/>
    </g>
</svg>
