<svg id="visual" viewBox="0 0 1980 1200" width="1980" height="1200" xmlns="http://www.w3.org/2000/svg" xmlns:xlink="http://www.w3.org/1999/xlink" version="1.1"><path d="M0 332L47.2 359C94.3 386 188.7 440 283 441.8C377.3 443.7 471.7 393.3 566 391.3C660.3 389.3 754.7 435.7 848.8 440.7C943 445.7 1037 409.3 1131.2 379.3C1225.3 349.3 1319.7 325.7 1414 346C1508.3 366.3 1602.7 430.7 1697 457C1791.3 483.3 1885.7 471.7 1932.8 465.8L1980 460L1980 0L1932.8 0C1885.7 0 1791.3 0 1697 0C1602.7 0 1508.3 0 1414 0C1319.7 0 1225.3 0 1131.2 0C1037 0 943 0 848.8 0C754.7 0 660.3 0 566 0C471.7 0 377.3 0 283 0C188.7 0 94.3 0 47.2 0L0 0Z" fill="#fa7268"></path><path d="M0 321L47.2 329.5C94.3 338 188.7 355 283 358.5C377.3 362 471.7 352 566 354.7C660.3 357.3 754.7 372.7 848.8 367.3C943 362 1037 336 1131.2 333.5C1225.3 331 1319.7 352 1414 367.2C1508.3 382.3 1602.7 391.7 1697 387.2C1791.3 382.7 1885.7 364.3 1932.8 355.2L1980 346L1980 0L1932.8 0C1885.7 0 1791.3 0 1697 0C1602.7 0 1508.3 0 1414 0C1319.7 0 1225.3 0 1131.2 0C1037 0 943 0 848.8 0C754.7 0 660.3 0 566 0C471.7 0 377.3 0 283 0C188.7 0 94.3 0 47.2 0L0 0Z" fill="#ef5f67"></path><path d="M0 302L47.2 283.2C94.3 264.3 188.7 226.7 283 214C377.3 201.3 471.7 213.7 566 221.3C660.3 229 754.7 232 848.8 233.2C943 234.3 1037 233.7 1131.2 225.3C1225.3 217 1319.7 201 1414 208.3C1508.3 215.7 1602.7 246.3 1697 249.8C1791.3 253.3 1885.7 229.7 1932.8 217.8L1980 206L1980 0L1932.8 0C1885.7 0 1791.3 0 1697 0C1602.7 0 1508.3 0 1414 0C1319.7 0 1225.3 0 1131.2 0C1037 0 943 0 848.8 0C754.7 0 660.3 0 566 0C471.7 0 377.3 0 283 0C188.7 0 94.3 0 47.2 0L0 0Z" fill="#e34c67"></path><path d="M0 231L47.2 215.2C94.3 199.3 188.7 167.7 283 163.8C377.3 160 471.7 184 566 191.7C660.3 199.3 754.7 190.7 848.8 187.8C943 185 1037 188 1131.2 193.3C1225.3 198.7 1319.7 206.3 1414 204.3C1508.3 202.3 1602.7 190.7 1697 173.7C1791.3 156.7 1885.7 134.3 1932.8 123.2L1980 112L1980 0L1932.8 0C1885.7 0 1791.3 0 1697 0C1602.7 0 1508.3 0 1414 0C1319.7 0 1225.3 0 1131.2 0C1037 0 943 0 848.8 0C754.7 0 660.3 0 566 0C471.7 0 377.3 0 283 0C188.7 0 94.3 0 47.2 0L0 0Z" fill="#d53867"></path><path d="M0 115L47.2 105.8C94.3 96.7 188.7 78.3 283 72C377.3 65.7 471.7 71.3 566 75C660.3 78.7 754.7 80.3 848.8 82.5C943 84.7 1037 87.3 1131.2 93.7C1225.3 100 1319.7 110 1414 108.7C1508.3 107.3 1602.7 94.7 1697 90.3C1791.3 86 1885.7 90 1932.8 92L1980 94L1980 0L1932.8 0C1885.7 0 1791.3 0 1697 0C1602.7 0 1508.3 0 1414 0C1319.7 0 1225.3 0 1131.2 0C1037 0 943 0 848.8 0C754.7 0 660.3 0 566 0C471.7 0 377.3 0 283 0C188.7 0 94.3 0 47.2 0L0 0Z" fill="#c62368"></path></svg>