<svg id="visual" viewBox="0 0 " width="1920" height="1080" xmlns="http://www.w3.org/2000/svg" xmlns:xlink="http://www.w3.org/1999/xlink" version="1.1"><path d="M0 435L53.3 433.8C106.7 432.7 213.3 430.3 320 413.3C426.7 396.3 533.3 364.7 640 367.8C746.7 371 853.3 409 960 409.7C1066.7 410.3 1173.3 373.7 1280 356.7C1386.7 339.7 1493.3 342.3 1600 341.2C1706.7 340 1813.3 335 1866.7 332.5L1920 330L1920 0L1866.7 0C1813.3 0 1706.7 0 1600 0C1493.3 0 1386.7 0 1280 0C1173.3 0 1066.7 0 960 0C853.3 0 746.7 0 640 0C533.3 0 426.7 0 320 0C213.3 0 106.7 0 53.3 0L0 0Z" fill="#faa969"></path><path d="M0 242L53.3 252.5C106.7 263 213.3 284 320 279.5C426.7 275 533.3 245 640 247.7C746.7 250.3 853.3 285.7 960 303.3C1066.7 321 1173.3 321 1280 308.2C1386.7 295.3 1493.3 269.7 1600 267.2C1706.7 264.7 1813.3 285.3 1866.7 295.7L1920 306L1920 0L1866.7 0C1813.3 0 1706.7 0 1600 0C1493.3 0 1386.7 0 1280 0C1173.3 0 1066.7 0 960 0C853.3 0 746.7 0 640 0C533.3 0 426.7 0 320 0C213.3 0 106.7 0 53.3 0L0 0Z" fill="#f88f5a"></path><path d="M0 268L53.3 254.2C106.7 240.3 213.3 212.7 320 202.8C426.7 193 533.3 201 640 207.2C746.7 213.3 853.3 217.7 960 230.8C1066.7 244 1173.3 266 1280 267.5C1386.7 269 1493.3 250 1600 240.5C1706.7 231 1813.3 231 1866.7 231L1920 231L1920 0L1866.7 0C1813.3 0 1706.7 0 1600 0C1493.3 0 1386.7 0 1280 0C1173.3 0 1066.7 0 960 0C853.3 0 746.7 0 640 0C533.3 0 426.7 0 320 0C213.3 0 106.7 0 53.3 0L0 0Z" fill="#f47251"></path><path d="M0 159L53.3 156.8C106.7 154.7 213.3 150.3 320 154C426.7 157.7 533.3 169.3 640 168C746.7 166.7 853.3 152.3 960 154C1066.7 155.7 1173.3 173.3 1280 185.3C1386.7 197.3 1493.3 203.7 1600 199.2C1706.7 194.7 1813.3 179.3 1866.7 171.7L1920 164L1920 0L1866.7 0C1813.3 0 1706.7 0 1600 0C1493.3 0 1386.7 0 1280 0C1173.3 0 1066.7 0 960 0C853.3 0 746.7 0 640 0C533.3 0 426.7 0 320 0C213.3 0 106.7 0 53.3 0L0 0Z" fill="#ee514e"></path><path d="M0 105L53.3 98C106.7 91 213.3 77 320 68.3C426.7 59.7 533.3 56.3 640 67.2C746.7 78 853.3 103 960 109.8C1066.7 116.7 1173.3 105.3 1280 100C1386.7 94.7 1493.3 95.3 1600 97.7C1706.7 100 1813.3 104 1866.7 106L1920 108L1920 0L1866.7 0C1813.3 0 1706.7 0 1600 0C1493.3 0 1386.7 0 1280 0C1173.3 0 1066.7 0 960 0C853.3 0 746.7 0 640 0C533.3 0 426.7 0 320 0C213.3 0 106.7 0 53.3 0L0 0Z" fill="#e6244f"></path></svg>